<svg width="20" height="14" viewBox="0 0 20 14" fill="none" xmlns="http://www.w3.org/2000/svg">
<path d="M0.678711 13.9209V11.4082C0.678711 10.9051 0.808864 10.4427 1.06917 10.0209C1.32949 9.59921 1.67533 9.27737 2.10669 9.05541C2.97777 8.62153 3.86433 8.2953 4.76636 8.0767C5.6684 7.8581 6.58453 7.7488 7.51475 7.7488C8.45135 7.7488 9.37074 7.85727 10.2729 8.0742C11.1751 8.29114 12.0584 8.61655 12.9228 9.05043C13.3542 9.27191 13.7 9.59306 13.9604 10.0139C14.2207 10.4347 14.3508 10.8994 14.3508 11.4079V13.9209H0.678711ZM16.0922 13.9209V11.2565C16.0922 10.6321 15.9237 10.0304 15.5868 9.45124C15.2498 8.87214 14.7639 8.3563 14.1289 7.9037C14.8007 7.99367 15.4358 8.13686 16.0342 8.33326C16.6327 8.52966 17.1961 8.76872 17.7245 9.05043C18.2377 9.32821 18.6321 9.65601 18.9076 10.0338C19.1832 10.4117 19.3209 10.8242 19.3209 11.2714V13.9209H16.0922ZM7.51475 6.91547C6.57152 6.91547 5.76604 6.58161 5.09832 5.91389C4.43059 5.24615 4.09673 4.44066 4.09673 3.49743C4.09673 2.55419 4.43059 1.74871 5.09832 1.08099C5.76604 0.413268 6.57152 0.0794067 7.51475 0.0794067C8.45799 0.0794067 9.26348 0.413268 9.93121 1.08099C10.5989 1.74871 10.9328 2.55419 10.9328 3.49743C10.9328 4.44066 10.5989 5.24615 9.93121 5.91389C9.26348 6.58161 8.45799 6.91547 7.51475 6.91547ZM16.0922 3.49739C16.0922 4.43733 15.7576 5.242 15.0884 5.91139C14.4192 6.58077 13.6147 6.91547 12.675 6.91547C12.5184 6.91547 12.3236 6.89727 12.0909 6.86089C11.8581 6.82451 11.6586 6.78216 11.4926 6.73384C11.8742 6.28276 12.1666 5.77999 12.3696 5.22553C12.5727 4.67107 12.6742 4.09529 12.6742 3.49818C12.6742 2.90107 12.5727 2.32503 12.3696 1.77007C12.1666 1.21513 11.8742 0.712108 11.4926 0.26101C11.6903 0.188247 11.8864 0.139789 12.0809 0.115636C12.2753 0.0914834 12.4723 0.0794067 12.6718 0.0794067C13.6124 0.0794067 14.4176 0.414087 15.0875 1.08345C15.7573 1.7528 16.0922 2.55744 16.0922 3.49739ZM2.57454 12.0251H12.455V11.4331C12.455 11.2836 12.4168 11.1476 12.3404 11.0253C12.264 10.9029 12.1633 10.8077 12.0383 10.7397C11.3082 10.378 10.5662 10.1051 9.81232 9.92091C9.05838 9.73673 8.29253 9.64464 7.51475 9.64464C6.74363 9.64464 5.97778 9.73673 5.21721 9.92091C4.45664 10.1051 3.71464 10.378 2.99121 10.7397C2.86621 10.8077 2.76552 10.9029 2.68913 11.0253C2.61274 11.1476 2.57454 11.2836 2.57454 11.4331V12.0251ZM7.51396 5.09434C7.95291 5.09434 8.32893 4.93806 8.64202 4.62549C8.95514 4.31292 9.11169 3.93716 9.11169 3.49822C9.11169 3.05929 8.9554 2.68327 8.64282 2.37018C8.33025 2.05707 7.95449 1.90051 7.51554 1.90051C7.07661 1.90051 6.7006 2.0568 6.3875 2.36939C6.07439 2.68196 5.91784 3.0577 5.91784 3.49664C5.91784 3.93558 6.07413 4.3116 6.38671 4.6247C6.69928 4.9378 7.07503 5.09434 7.51396 5.09434Z" fill="#6548EE"/>
</svg>
